<?xml version="1.0" encoding="utf-8"?>
<!-- Generator: Adobe Illustrator 28.0.0, SVG Export Plug-In . SVG Version: 6.00 Build 0)  -->
<svg version="1.1" id="Capa_1" xmlns="http://www.w3.org/2000/svg" xmlns:xlink="http://www.w3.org/1999/xlink" x="0px" y="0px"
	 viewBox="0 0 646 203" style="enable-background:new 0 0 646 203;" xml:space="preserve">
<style type="text/css">
	.st0{fill:#262726;}
	.st1{fill:#24C347;}
</style>
<g id="Page-1">
	<g id="Aecc-Uikit" transform="translate(-525.000000, -382.000000)">
		<g id="CC_Logo_transicion_color_pos.rgb" transform="translate(525.000000, 382.000000)">
			<polygon id="Path" class="st0" points="514.6,150.2 510.1,148.7 512.9,141.9 519.6,141.9 			"/>
			<path id="Path_00000150085825127468711860000016912822133288826783_" class="st1" d="M174.3,111.3c-7.4-7.2-17.2-11.3-26.9-11.3
				h-0.1c-15.1,0-23.2,7-29.6,12.6c-5.4,4.7-8.9,7.8-16.7,7.8h0c-1.9,0-3.8-0.3-5.6-0.8c-6.2-2.1-10.8-7.2-12.3-13.5
				c-0.1-0.3-0.1-0.5-0.2-0.8c-0.1-0.3-0.1-0.6-0.1-0.9c0-0.3-0.1-0.6-0.1-0.9c-0.1-0.6-0.1-1.2-0.1-1.7c0-2.4,0.5-4.9,1.4-7.1
				c0.2-0.5,0.4-1,0.7-1.5c0.2-0.4,0.4-0.7,0.6-1c0.3-0.5,0.6-0.9,0.9-1.4c4.7-6.6,13.1-9.4,20.8-7c4.9,1,9.8-1.9,11.3-6.7
				s-0.9-10-5.6-12c-3.6-1.2-7.3-1.8-11.1-1.8c-3.5,0-7.1,0.4-10.5,1.2c-8.6,2.2-16.3,8.1-21.4,15.7c-0.1,0.1-0.1,0.2-0.2,0.3
				c-0.7,1-1.3,2-1.9,3.1l-0.1,0.2c-0.6,1-1.1,2.1-1.5,3.2c0,0,0,0.1-0.1,0.1c-2,4.5-3,9.3-3,14.2c0,1.5,0.1,3,0.2,4.5
				c0,0.4,0.1,0.8,0.2,1.2c0.1,0.9,0.2,1.8,0.4,2.7l0,0.2c2.8,14.1,12.7,24.9,26.1,28.8c3.7,1.2,7.6,1.8,11.5,1.8
				c12.2,0,23.3-7.5,29.3-12.8c5.4-4.7,8.9-7.8,16.7-7.8h0c4.7,0,9.5,2.1,13.3,5.8c3.8,3.6,6,8.5,6.1,13.8
				c0,17.6-26.3,44.3-65.8,44.3H101c-44.3-0.1-80.8-36.3-81.3-80.8c-0.3-21.9,8.2-43,23.6-58.6s36.3-24.4,58.1-24.4h0.1
				c21.7,0,42.4,8.6,57.7,24c3.9,3.5,9.8,3.3,13.5-0.4c3.7-3.7,3.9-9.6,0.4-13.5C154.1,10.7,128.3,0,101.4,0h-0.2
				c-27.1,0-53,10.9-72.1,30.2S-0.3,75.7,0,102.8C0.7,158,45.9,202.9,100.9,203h0.2c48.8,0,85.3-33.7,85.4-63.8
				C186.4,128.6,182,118.5,174.3,111.3"/>
			<path id="Path_00000170967701739050980190000003791450117776119432_" class="st0" d="M227.8,168.5c0-2,0.3-4,1-5.9
				c0.6-1.8,1.6-3.5,2.9-4.9c1.3-1.4,2.9-2.6,4.7-3.4c1.9-0.9,4-1.3,6.1-1.2c2.8-0.1,5.5,0.7,7.8,2.1c2.1,1.3,3.8,3.3,4.8,5.5
				l-7,2.3c-1.7-3.1-5.5-4.3-8.6-2.8c-0.9,0.4-1.7,1.1-2.3,1.8c-0.7,0.8-1.2,1.8-1.6,2.8c-0.4,1.2-0.6,2.4-0.6,3.6
				c0,1.2,0.2,2.5,0.6,3.6c0.4,1,0.9,2,1.6,2.8c0.6,0.8,1.4,1.4,2.3,1.8c0.9,0.4,1.9,0.7,2.8,0.7c1.3,0,2.5-0.4,3.6-1
				c1-0.6,1.8-1.5,2.3-2.5l7,2.3c-1,2.3-2.6,4.2-4.8,5.6c-2.4,1.5-5.2,2.2-8,2.2c-2.1,0-4.2-0.4-6.1-1.2c-1.8-0.8-3.3-1.9-4.6-3.4
				c-1.3-1.4-2.3-3.1-3-4.9C228.1,172.5,227.8,170.5,227.8,168.5z"/>
			<path id="Shape" class="st0" d="M272.6,184c-2.1,0-4.2-0.4-6.1-1.2c-1.8-0.8-3.3-1.9-4.6-3.4c-1.3-1.4-2.3-3.1-2.9-4.9
				c-0.7-1.9-1-3.9-1-5.9c0-2,0.3-4,1-5.9c0.6-1.8,1.6-3.5,2.9-4.9c1.3-1.4,2.9-2.6,4.6-3.4c1.9-0.9,4-1.3,6.1-1.2
				c2.1,0,4.2,0.4,6.1,1.2c1.7,0.8,3.3,1.9,4.6,3.4c1.3,1.4,2.3,3.1,2.9,4.9c0.7,1.9,1,3.9,1,5.9c0,2-0.3,4-1,5.9
				c-0.6,1.8-1.6,3.5-2.9,4.9c-1.3,1.4-2.8,2.6-4.6,3.4C276.8,183.6,274.7,184,272.6,184z M265.3,168.5c0,1.2,0.2,2.4,0.6,3.6
				c0.3,1,0.9,2,1.6,2.8c0.6,0.8,1.4,1.4,2.3,1.8c1.8,0.9,3.9,0.9,5.8,0c0.9-0.4,1.7-1.1,2.3-1.8c0.7-0.8,1.2-1.8,1.5-2.8
				c0.4-1.2,0.6-2.4,0.6-3.6c0-1.2-0.2-2.4-0.6-3.6c-0.3-1-0.9-2-1.5-2.8c-0.6-0.8-1.4-1.4-2.3-1.8c-0.9-0.4-1.9-0.7-2.9-0.7
				c-1,0-2,0.2-2.9,0.7c-0.9,0.5-1.7,1.1-2.3,1.9c-0.7,0.8-1.2,1.8-1.6,2.8C265.5,166.1,265.3,167.3,265.3,168.5L265.3,168.5z"/>
			<path id="Path_00000080906694591581453790000006901436057701877907_" class="st0" d="M318.1,183.4h-7.2v-16.7
				c0-2.4-0.4-4.1-1.2-5.2c-0.7-1.1-2-1.7-3.3-1.6c-0.8,0-1.5,0.2-2.2,0.5c-0.8,0.3-1.5,0.7-2.1,1.3c-0.7,0.6-1.3,1.2-1.8,2
				c-0.5,0.8-0.9,1.6-1.2,2.5v17.4h-7.2v-29.8h6.5v5.5c1-1.9,2.6-3.4,4.5-4.4c2-1.1,4.3-1.6,6.6-1.6c1.5-0.1,3,0.3,4.3,1
				c1.1,0.6,2,1.6,2.6,2.7c0.6,1.2,1.1,2.4,1.3,3.8c0.2,1.4,0.3,2.8,0.3,4.3V183.4z"/>
			<polygon id="Path_00000091709384821481569060000013663774593427982481_" class="st0" points="326.6,183.4 326.6,160.5 
				322.4,160.5 322.4,153.6 326.6,153.6 326.6,144 334,144 334,153.6 340.5,153.6 340.5,160.5 334,160.5 334,183.4 			"/>
			<path id="Path_00000025414539790191005670000016174696296719011222_" class="st0" d="M361.3,160.2c-2,0-4,0.5-5.8,1.3
				c-1.6,0.8-3,2.2-3.7,3.8v18h-7.2v-29.8h6.6v6.4c0.5-1,1.1-1.9,1.8-2.8c0.7-0.8,1.4-1.5,2.2-2.1c0.7-0.6,1.5-1,2.4-1.4
				c0.7-0.3,1.5-0.5,2.3-0.5h0.9c0.2,0,0.4,0,0.6,0.1L361.3,160.2z"/>
			<path id="Shape_00000076566437239357757630000000836208180329674628_" class="st0" d="M376.8,184c-1.8,0-3.7-0.4-5.3-1.2
				c-1.6-0.8-3-1.9-4.2-3.3c-1.2-1.5-2.1-3.1-2.8-4.9c-0.7-1.9-1-4-1-6.1c0-2.1,0.3-4.1,1-6c0.6-1.8,1.5-3.4,2.6-4.9
				c1.1-1.4,2.4-2.5,4-3.3c1.5-0.8,3.2-1.2,5-1.2c2,0,3.9,0.5,5.6,1.6c1.6,1,3,2.5,3.8,4.2v-4.9h7.2v29.4h-7.1v-4.8
				c-0.8,1.6-2.1,3-3.6,4C380.5,183.5,378.7,184,376.8,184z M385.6,165.4c-0.6-1.6-1.6-3.1-2.9-4.2c-1.2-1-2.7-1.6-4.3-1.6
				c-1,0-2.1,0.3-3,0.8c-0.9,0.5-1.7,1.2-2.4,2c-0.7,0.9-1.2,1.9-1.5,2.9c-0.4,1.1-0.5,2.2-0.5,3.4c0,1.2,0.2,2.3,0.6,3.4
				c0.3,1,0.9,2,1.6,2.8c0.7,0.8,1.5,1.4,2.4,1.9c1,0.5,2,0.7,3.1,0.7c1.5,0,3-0.4,4.1-1.4c1.2-1,2.2-2.2,2.8-3.6L385.6,165.4z"/>
			<path id="Shape_00000043445614621506409570000000981693846029518009_" class="st0" d="M425,184c-2.1,0-4.2-0.4-6.1-1.2
				c-1.8-0.8-3.3-1.9-4.6-3.3c-1.3-1.4-2.3-3.1-3-4.9c-0.7-1.9-1.1-3.9-1-5.9c0-2,0.3-4.1,1-6c0.7-1.8,1.7-3.5,2.9-4.9
				c1.3-1.4,2.9-2.6,4.7-3.4c1.9-0.9,4-1.3,6.2-1.2c2.1,0,4.2,0.4,6.1,1.2c1.7,0.8,3.3,1.9,4.6,3.4c1.3,1.4,2.3,3.1,2.9,4.9
				c0.7,1.9,1,3.8,1,5.8c0,0.5,0,1,0,1.4c0,0.4-0.1,0.8-0.1,1.1h-21.7c0.1,1.1,0.4,2.1,0.8,3.1c0.4,0.9,1,1.7,1.7,2.3
				c1.3,1.3,3.1,2,5,2c1.4,0,2.8-0.4,4-1.1c1.2-0.6,2.1-1.7,2.6-2.9l6.1,1.8c-1.1,2.3-2.8,4.3-4.9,5.6
				C430.7,183.3,427.9,184,425,184L425,184z M432.3,166c-0.1-2-0.9-3.9-2.3-5.4c-2-2-5.1-2.6-7.7-1.5c-0.8,0.4-1.6,0.9-2.2,1.5
				c-0.7,0.7-1.2,1.5-1.6,2.3c-0.4,1-0.7,2-0.7,3H432.3z"/>
			<polygon id="Path_00000141418013596757466100000018125980529975766666_" class="st0" points="444.1,141.9 451.3,141.9 
				451.3,183.4 444.1,183.4 			"/>
			<path id="Path_00000058565703352542571870000000596736326158623126_" class="st0" d="M469.1,168.5c0-2,0.3-4,1-5.9
				c0.6-1.8,1.6-3.5,2.9-4.9c1.3-1.4,2.9-2.6,4.6-3.4c1.9-0.9,4-1.3,6.1-1.2c2.8-0.1,5.5,0.7,7.8,2.1c2.1,1.3,3.8,3.3,4.8,5.5
				l-7,2.3c-1.7-3.1-5.5-4.3-8.6-2.8c-0.9,0.4-1.7,1.1-2.3,1.8c-0.7,0.8-1.2,1.8-1.5,2.8c-0.4,1.2-0.6,2.4-0.6,3.6
				c0,1.2,0.2,2.5,0.6,3.6c0.4,1,0.9,2,1.6,2.8c0.6,0.8,1.4,1.4,2.3,1.8c0.9,0.4,1.8,0.7,2.8,0.7c1.3,0,2.5-0.3,3.6-1
				c1-0.6,1.8-1.5,2.3-2.5l7,2.3c-1,2.3-2.6,4.2-4.8,5.6c-2.4,1.5-5.2,2.2-8,2.2c-2.1,0-4.2-0.4-6.1-1.2c-1.8-0.8-3.3-1.9-4.7-3.4
				c-1.3-1.4-2.3-3.1-3-4.9C469.4,172.5,469,170.5,469.1,168.5L469.1,168.5z"/>
			<path id="Shape_00000038371099111657104950000005142683163093328805_" class="st0" d="M512.5,184c-1.8,0-3.7-0.4-5.3-1.2
				c-1.6-0.8-3-1.9-4.2-3.3c-1.2-1.5-2.1-3.1-2.8-4.9c-0.7-1.9-1-4-1-6.1c0-2.1,0.3-4.1,1-6c0.6-1.8,1.5-3.4,2.6-4.9
				c1.1-1.4,2.4-2.5,4-3.3c1.5-0.8,3.2-1.2,5-1.2c2,0,3.9,0.5,5.6,1.6c1.6,1,3,2.5,3.8,4.2v-4.9h7.2v29.4h-7.2v-4.8
				c-0.8,1.6-2.1,3-3.6,4C516.1,183.5,514.3,184,512.5,184z M521.3,165.4c-0.6-1.6-1.6-3.1-2.9-4.2c-1.2-1-2.7-1.6-4.3-1.6
				c-1,0-2.1,0.3-3,0.8c-0.9,0.5-1.7,1.2-2.4,2c-0.7,0.9-1.2,1.9-1.5,2.9c-0.4,1.1-0.5,2.2-0.5,3.4c0,1.2,0.2,2.3,0.6,3.4
				c0.3,1,0.9,2,1.6,2.8c0.7,0.8,1.5,1.4,2.4,1.9c1,0.5,2,0.7,3.1,0.7c1.5,0,3-0.4,4.1-1.4c1.2-1,2.2-2.2,2.8-3.6L521.3,165.4z"/>
			<path id="Path_00000038376743917274891970000002995703288780103323_" class="st0" d="M560.9,183.4h-7.2v-16.7
				c0-2.4-0.4-4.1-1.2-5.2c-0.7-1.1-2-1.7-3.3-1.6c-0.8,0-1.5,0.2-2.2,0.5c-0.8,0.3-1.5,0.7-2.1,1.3c-0.7,0.6-1.3,1.2-1.8,2
				c-0.5,0.8-0.9,1.6-1.2,2.5v17.4h-7.2v-29.8h6.5v5.5c1-1.9,2.6-3.4,4.5-4.4c2-1.1,4.3-1.6,6.6-1.6c1.5-0.1,3,0.3,4.3,1
				c1.1,0.6,2,1.6,2.6,2.7c0.6,1.2,1.1,2.4,1.3,3.8c0.2,1.4,0.3,2.8,0.3,4.3V183.4z"/>
			<path id="Path_00000097483274618941074540000006230830629251726746_" class="st0" d="M565.4,168.5c0-2,0.3-4,1-5.9
				c0.6-1.8,1.6-3.5,2.9-4.9c1.3-1.4,2.9-2.6,4.7-3.4c1.9-0.9,4-1.3,6.1-1.2c2.8-0.1,5.5,0.7,7.8,2.1c2.1,1.3,3.8,3.3,4.8,5.5
				l-7,2.3c-1.7-3-5.4-4.2-8.6-2.7c-0.9,0.4-1.7,1.1-2.3,1.8c-0.7,0.8-1.2,1.8-1.6,2.8c-0.4,1.2-0.6,2.4-0.6,3.6
				c0,1.2,0.2,2.5,0.6,3.6c0.4,1,0.9,2,1.6,2.8c0.6,0.8,1.4,1.4,2.3,1.9c0.9,0.4,1.9,0.7,2.8,0.7c1.3,0,2.5-0.3,3.6-1
				c1-0.6,1.8-1.5,2.3-2.5l7,2.3c-1,2.3-2.6,4.2-4.8,5.6c-2.4,1.5-5.2,2.2-8,2.2c-2.1,0-4.2-0.4-6.1-1.2c-1.8-0.8-3.3-1.9-4.6-3.4
				c-1.3-1.4-2.3-3.1-3-4.9C565.7,172.5,565.4,170.5,565.4,168.5L565.4,168.5z"/>
			<path id="Shape_00000018923319282982395900000017127110714516224675_" class="st0" d="M610.3,184c-2.1,0-4.2-0.4-6.1-1.2
				c-1.8-0.8-3.3-1.9-4.7-3.3c-1.3-1.4-2.3-3.1-3-4.9c-0.7-1.9-1.1-3.9-1-5.9c0-2,0.3-4.1,1-6c0.6-1.8,1.6-3.5,2.9-4.9
				c1.3-1.4,2.9-2.6,4.7-3.4c1.9-0.9,4-1.3,6.2-1.2c2.1,0,4.2,0.4,6.1,1.2c1.7,0.8,3.3,1.9,4.6,3.4c1.3,1.4,2.3,3.1,2.9,4.9
				c0.7,1.9,1,3.8,1,5.8c0,0.5,0,1,0,1.4c0,0.4-0.1,0.8-0.1,1.1h-21.7c0.1,1.1,0.4,2.1,0.8,3.1c0.4,0.9,1,1.7,1.7,2.3
				c0.7,0.6,1.4,1.1,2.3,1.5c0.9,0.3,1.8,0.5,2.7,0.5c1.4,0,2.8-0.4,4-1.1c1.2-0.6,2.1-1.7,2.6-2.9l6.1,1.8
				c-1.1,2.3-2.8,4.3-4.9,5.6C616,183.3,613.2,184,610.3,184L610.3,184z M617.6,166c-0.1-2-0.9-3.9-2.3-5.4c-1.3-1.3-3.1-2.1-5-2
				c-0.9,0-1.8,0.2-2.7,0.5c-0.8,0.4-1.6,0.9-2.2,1.5c-0.7,0.7-1.2,1.5-1.6,2.3c-0.4,1-0.7,2-0.7,3H617.6z"/>
			<path id="Path_00000109745777834014122460000009757520295955835033_" class="st0" d="M646,160.2c-2,0-4,0.5-5.8,1.3
				c-1.6,0.8-3,2.2-3.7,3.8v18h-7.2v-29.8h6.6v6.4c0.9-1.9,2.3-3.6,4-4.9c0.7-0.6,1.5-1,2.4-1.4c0.7-0.3,1.5-0.5,2.3-0.5h0.9
				c0.2,0,0.4,0,0.6,0.1V160.2z"/>
			<path id="Shape_00000031184185771106131000000008593280651583173803_" class="st0" d="M242.5,122.8c-2.1,0-4.2-0.4-6.1-1.2
				c-1.8-0.8-3.3-1.9-4.6-3.3c-1.3-1.4-2.3-3.1-3-4.9c-0.7-1.9-1.1-3.9-1-5.9c0-2,0.3-4.1,1-6c0.6-1.8,1.6-3.5,2.9-4.9
				c1.3-1.4,2.9-2.6,4.7-3.4c1.9-0.9,4.1-1.3,6.2-1.2c2.1,0,4.2,0.4,6.1,1.2c1.7,0.8,3.3,1.9,4.6,3.4c1.3,1.4,2.3,3.1,2.9,4.9
				c0.7,1.9,1,3.8,1,5.8c0,0.5,0,1,0,1.4c0,0.4-0.1,0.8-0.1,1.1h-21.7c0.1,1.1,0.4,2.1,0.8,3.1c0.4,0.9,0.9,1.7,1.6,2.4
				c0.7,0.6,1.4,1.1,2.3,1.5c0.9,0.3,1.8,0.5,2.7,0.5c1.4,0,2.8-0.4,4-1.1c1.2-0.6,2.1-1.7,2.6-2.9l6.1,1.8
				c-1.1,2.3-2.8,4.3-4.9,5.6C248.2,122.2,245.4,122.9,242.5,122.8z M249.8,104.9c-0.1-2-0.9-3.9-2.3-5.4c-1.3-1.3-3.1-2-5-2
				c-0.9,0-1.8,0.2-2.7,0.5c-0.8,0.4-1.6,0.9-2.2,1.5c-0.7,0.7-1.2,1.5-1.6,2.3c-0.4,1-0.6,2-0.7,3H249.8z"/>
			<path id="Path_00000087381612654809225530000007222756456168386459_" class="st0" d="M272.1,122.8c-2.3,0-4.7-0.4-6.9-1.2
				c-2.1-0.7-4.1-1.9-5.8-3.4l2.7-4.8c1.5,1.2,3.2,2.2,5,2.9c1.5,0.6,3.2,1,4.8,1c1.2,0.1,2.4-0.2,3.4-0.9c0.8-0.5,1.3-1.5,1.2-2.4
				c0-1-0.5-1.9-1.4-2.3c-1.5-0.7-3.1-1.3-4.7-1.7c-1.8-0.5-3.4-1-4.6-1.5c-1.1-0.4-2.2-1-3.1-1.7c-0.7-0.6-1.3-1.3-1.7-2.2
				c-0.4-0.9-0.6-1.9-0.5-2.9c0-1.4,0.3-2.8,0.8-4.1c0.5-1.2,1.3-2.2,2.3-3.1c1-0.9,2.2-1.5,3.5-2c1.4-0.5,2.9-0.7,4.4-0.7
				c2,0,4,0.3,5.9,1c1.9,0.7,3.6,1.7,5.1,3.1l-2.9,4.6c-1.2-1-2.6-1.9-4.1-2.5c-1.3-0.5-2.6-0.8-4-0.8c-1.1,0-2.1,0.2-3,0.8
				c-0.8,0.6-1.3,1.5-1.2,2.6c0,0.5,0.1,0.9,0.3,1.3c0.2,0.4,0.6,0.7,0.9,0.9c0.5,0.3,1.1,0.6,1.6,0.7c0.7,0.2,1.6,0.5,2.6,0.8
				c1.9,0.5,3.6,1.1,4.9,1.6c1.2,0.4,2.3,1.1,3.4,1.8c0.8,0.6,1.5,1.4,1.9,2.4c0.4,1,0.6,2.1,0.6,3.2c0.1,2.7-1,5.2-3,6.9
				C278.4,122,275.6,122.8,272.1,122.8z"/>
			<path id="Shape_00000045602215238110745320000015435555908456253107_" class="st0" d="M304.9,122.8c-2,0-4-0.5-5.8-1.6
				c-1.6-1-3-2.5-3.8-4.2v17.3h-7.2V92.5h6.3v5.1c1-1.7,2.4-3.1,4-4.1c1.7-1,3.7-1.5,5.7-1.5c1.8,0,3.6,0.4,5.2,1.2
				c1.6,0.8,3,1.9,4.1,3.3c1.2,1.5,2.1,3.1,2.7,4.9c0.7,1.9,1,3.9,1,5.9c0,2.1-0.3,4.1-0.9,6.1c-0.6,1.8-1.4,3.4-2.5,4.9
				c-1,1.4-2.4,2.5-3.9,3.3C308.3,122.5,306.6,122.9,304.9,122.8L304.9,122.8z M302.5,116.4c1,0,2-0.2,3-0.7c0.9-0.5,1.7-1.2,2.3-2
				c0.7-0.9,1.2-1.9,1.5-2.9c0.4-1.1,0.5-2.2,0.5-3.4c0-1.2-0.2-2.4-0.6-3.5c-0.4-1-0.9-2-1.6-2.8c-0.7-0.8-1.5-1.4-2.5-1.9
				c-1-0.5-2-0.7-3.1-0.7c-0.7,0-1.4,0.1-2.1,0.4c-0.7,0.2-1.4,0.6-2,1.1c-0.6,0.5-1.2,1-1.6,1.6c-0.5,0.6-0.8,1.3-1.1,2v7
				c0.6,1.6,1.6,3.1,2.9,4.2C299.4,115.8,300.9,116.4,302.5,116.4L302.5,116.4z"/>
			<path id="Shape_00000080202109723603354810000008080519194200239018_" class="st0" d="M333.5,122.8c-1.8,0-3.7-0.4-5.3-1.2
				c-1.6-0.8-3-1.9-4.2-3.3c-1.2-1.5-2.1-3.1-2.8-4.9c-0.7-1.9-1-4-1-6c0-2.1,0.3-4.1,1-6.1c0.6-1.8,1.5-3.4,2.6-4.9
				c1.1-1.4,2.4-2.5,4-3.3c1.5-0.8,3.2-1.2,5-1.2c2,0,3.9,0.5,5.6,1.6c1.6,1,3,2.5,3.8,4.2v-4.9h7.2v29.4h-7.1v-4.8
				c-0.8,1.6-2.1,3-3.6,4C337.2,122.4,335.4,122.9,333.5,122.8L333.5,122.8z M342.3,104.3c-0.6-1.6-1.6-3.1-2.9-4.2
				c-1.2-1-2.7-1.6-4.3-1.6c-1,0-2.1,0.3-3,0.8c-0.9,0.5-1.7,1.2-2.4,2c-0.7,0.9-1.2,1.9-1.5,2.9c-0.4,1.1-0.5,2.2-0.5,3.4
				c0,1.2,0.2,2.3,0.6,3.4c0.3,1,0.9,2,1.6,2.8c0.7,0.8,1.5,1.4,2.4,1.9c1,0.5,2,0.7,3.1,0.7c1.5,0,3-0.4,4.1-1.4
				c1.2-1,2.2-2.2,2.8-3.6L342.3,104.3z"/>
			<path id="Shape_00000176018209506994238200000015064378502692514445_" class="st0" d="M382,122.3h-7.2v-16.7
				c0-2.4-0.4-4.1-1.2-5.2c-0.7-1.1-2-1.7-3.3-1.6c-0.8,0-1.5,0.2-2.2,0.5c-0.8,0.3-1.5,0.7-2.1,1.3c-0.7,0.6-1.3,1.2-1.8,2
				c-0.5,0.8-0.9,1.6-1.2,2.5v17.4h-7.2V92.5h6.5V98c1-1.9,2.6-3.4,4.5-4.4c2-1.1,4.3-1.6,6.6-1.6c1.5-0.1,3,0.3,4.3,1
				c1.1,0.6,2,1.6,2.6,2.7c0.6,1.2,1.1,2.4,1.3,3.7c0.2,1.4,0.3,2.8,0.3,4.3L382,122.3z M372.9,88.1c-0.7,0-1.4-0.1-2.1-0.4
				c-0.6-0.2-1.2-0.5-1.7-0.9c-0.5-0.3-1-0.6-1.5-0.9c-0.5-0.3-1.1-0.4-1.6-0.4c-0.5,0-1,0.1-1.4,0.4c-0.3,0.2-0.6,0.6-0.8,0.9
				c-0.2,0.3-0.3,0.6-0.3,0.9c0,0.3-0.1,0.4-0.1,0.5h-4c0-0.6,0.1-1.2,0.3-1.7c0.2-0.9,0.6-1.7,1-2.4c0.5-0.8,1.2-1.6,1.9-2.2
				c0.9-0.6,1.9-1,3-0.9c0.7,0,1.4,0.1,2.1,0.4c0.6,0.3,1.1,0.6,1.7,0.9c0.5,0.3,1,0.6,1.5,0.9c0.5,0.3,1.1,0.4,1.7,0.4
				c0.5,0,1.1-0.1,1.5-0.4c0.3-0.2,0.6-0.5,0.9-0.9c0.2-0.3,0.3-0.6,0.4-1c0-0.2,0.1-0.4,0.1-0.6h4c-0.1,0.5-0.2,1.1-0.3,1.6
				c-0.2,0.9-0.6,1.7-1.1,2.4c-0.5,0.9-1.2,1.6-2,2.2C375.1,87.8,374,88.1,372.9,88.1L372.9,88.1z"/>
			<path id="Shape_00000081634737739325462950000007291493362951287207_" class="st0" d="M401.1,122.8c-2.1,0-4.2-0.4-6.1-1.2
				c-1.8-0.8-3.3-1.9-4.6-3.4c-1.3-1.4-2.3-3.1-2.9-4.9c-1.4-3.8-1.4-8,0-11.8c0.6-1.8,1.6-3.5,2.9-4.9c1.3-1.4,2.9-2.6,4.6-3.4
				c1.9-0.9,4-1.3,6.1-1.2c2.1,0,4.2,0.4,6.1,1.2c1.7,0.8,3.3,1.9,4.6,3.4c1.3,1.4,2.3,3.1,2.9,4.9c1.4,3.8,1.4,8,0,11.8
				c-0.6,1.8-1.6,3.5-2.9,4.9c-1.3,1.4-2.8,2.6-4.6,3.4C405.3,122.5,403.2,122.9,401.1,122.8L401.1,122.8z M393.8,107.5
				c0,1.2,0.2,2.4,0.6,3.6c0.3,1,0.9,2,1.5,2.8c0.6,0.8,1.4,1.4,2.3,1.8c1.8,0.9,3.9,0.9,5.8,0c0.9-0.4,1.7-1.1,2.3-1.8
				c0.7-0.8,1.2-1.8,1.5-2.8c0.4-1.2,0.6-2.4,0.6-3.6c0-1.2-0.2-2.4-0.6-3.6c-0.3-1-0.9-2-1.5-2.8c-0.6-0.8-1.4-1.4-2.3-1.9
				c-0.9-0.4-1.9-0.7-2.9-0.7c-1,0-2,0.2-2.9,0.7c-0.9,0.5-1.7,1.1-2.3,1.9c-0.7,0.8-1.2,1.8-1.5,2.8
				C394,105,393.8,106.2,393.8,107.5z"/>
			<polygon id="Path_00000137095369037778779070000017002940440896187301_" class="st0" points="420.7,80.8 427.8,80.8 427.8,122.3 
				420.7,122.3 			"/>
			<path id="Shape_00000003791758776834216480000003990934978662569909_" class="st0" d="M446.1,122.8c-1.8,0-3.7-0.4-5.3-1.2
				c-1.6-0.8-3-1.9-4.2-3.3c-1.2-1.5-2.1-3.1-2.8-4.9c-0.7-1.9-1-4-1-6c0-2.1,0.3-4.1,1-6.1c0.6-1.8,1.5-3.4,2.6-4.9
				c1.1-1.4,2.4-2.5,4-3.3c1.5-0.8,3.2-1.2,5-1.2c2,0,3.9,0.5,5.6,1.6c1.6,1,3,2.5,3.8,4.2v-4.9h7.2v29.4h-7.1v-4.8
				c-0.8,1.6-2.1,3-3.6,4C449.7,122.4,447.9,122.9,446.1,122.8L446.1,122.8z M454.8,104.3c-0.6-1.6-1.6-3.1-2.9-4.2
				c-1.2-1-2.7-1.6-4.3-1.6c-1,0-2.1,0.3-3,0.8c-0.9,0.5-1.7,1.2-2.4,2c-0.7,0.9-1.2,1.9-1.5,2.9c-0.4,1.1-0.5,2.2-0.5,3.4
				c0,1.2,0.2,2.3,0.6,3.4c0.3,1,0.9,2,1.6,2.8c0.7,0.8,1.5,1.4,2.4,1.9c1,0.5,2,0.7,3.1,0.7c1.5,0,3-0.4,4.1-1.4
				c1.2-1,2.2-2.2,2.8-3.6L454.8,104.3z"/>
			<path id="Shape_00000016787012055979379110000017162773447835989923_" class="st0" d="M241.1,61.7c-1.8,0-3.7-0.4-5.3-1.2
				c-1.6-0.8-3-1.9-4.2-3.3c-1.2-1.5-2.1-3.1-2.8-4.9c-0.7-1.9-1-4-1-6c0-2.1,0.3-4.1,1-6c0.6-1.8,1.5-3.4,2.6-4.9
				c1.1-1.4,2.4-2.5,4-3.3c1.5-0.8,3.2-1.2,5-1.2c2,0,3.9,0.5,5.6,1.6c1.6,1,3,2.5,3.8,4.2v-4.9h7.2V61h-7.1v-4.8
				c-0.8,1.6-2.1,3-3.6,4C244.7,61.2,242.9,61.7,241.1,61.7L241.1,61.7z M249.8,43.1c-0.6-1.6-1.6-3.1-2.9-4.2
				c-1.2-1-2.7-1.6-4.3-1.6c-1,0-2.1,0.3-3,0.8c-0.9,0.5-1.7,1.2-2.4,2c-0.7,0.9-1.2,1.9-1.5,2.9c-0.4,1.1-0.5,2.2-0.5,3.4
				c0,1.2,0.2,2.3,0.6,3.4c0.3,1,0.9,2,1.6,2.8c0.7,0.8,1.5,1.4,2.4,1.9c1,0.5,2,0.7,3.1,0.7c1.5,0,3-0.5,4.1-1.4
				c1.2-1,2.2-2.2,2.8-3.6L249.8,43.1z"/>
			<path id="Path_00000114786198934408583660000002418954593181575324_" class="st0" d="M274,61.7c-2.3,0-4.7-0.4-6.9-1.2
				c-2.1-0.7-4.1-1.9-5.8-3.4l2.7-4.8c1.5,1.2,3.2,2.2,5,2.9c1.5,0.6,3.2,1,4.8,1c1.2,0.1,2.4-0.2,3.4-0.8c0.8-0.5,1.3-1.5,1.2-2.4
				c0-1-0.5-1.9-1.4-2.3c-1.5-0.7-3.1-1.3-4.7-1.7c-1.8-0.5-3.4-1-4.6-1.5c-1.1-0.4-2.2-1-3.1-1.7c-0.7-0.6-1.3-1.3-1.7-2.2
				c-0.4-0.9-0.6-1.9-0.5-2.9c0-1.4,0.3-2.8,0.8-4.1c0.5-1.2,1.3-2.3,2.3-3.1c1-0.9,2.2-1.5,3.5-2c1.4-0.5,2.9-0.7,4.4-0.7
				c2,0,4,0.3,5.9,1c1.9,0.7,3.6,1.7,5.1,3.1l-2.9,4.6c-1.3-1-2.6-1.9-4.1-2.5c-1.3-0.5-2.6-0.8-4-0.8c-1.1,0-2.1,0.2-3.1,0.8
				c-0.8,0.6-1.3,1.5-1.2,2.6c0,0.5,0.1,0.9,0.3,1.3c0.2,0.4,0.5,0.7,0.9,0.9c0.5,0.3,1.1,0.6,1.7,0.8c0.7,0.2,1.6,0.5,2.6,0.8
				c1.9,0.5,3.6,1.1,4.9,1.6c1.2,0.4,2.3,1.1,3.4,1.8c0.8,0.6,1.5,1.4,1.9,2.4c0.4,1,0.6,2.1,0.6,3.2c0.1,2.7-1,5.2-3,6.9
				C280.3,60.8,277.5,61.7,274,61.7z"/>
			<path id="Shape_00000154391992389621816310000001163994360052644742_" class="st0" d="M303,61.7c-2.1,0-4.2-0.4-6.1-1.2
				c-1.8-0.8-3.3-1.9-4.6-3.4c-1.3-1.4-2.3-3.1-2.9-4.9c-0.7-1.9-1-3.9-1-5.9c0-2,0.3-4,1-5.9c0.6-1.8,1.6-3.5,2.9-4.9
				c1.3-1.4,2.9-2.6,4.6-3.4c1.9-0.9,4-1.3,6.1-1.2c2.1,0,4.2,0.4,6.1,1.2c1.7,0.8,3.3,1.9,4.6,3.4c1.3,1.4,2.3,3.1,2.9,4.9
				c0.7,1.9,1,3.9,1,5.9c0,2-0.3,4-1,5.9c-0.6,1.8-1.6,3.5-2.9,4.9c-1.3,1.4-2.8,2.6-4.6,3.4C307.2,61.3,305.1,61.7,303,61.7
				L303,61.7z M295.6,46.3c0,1.2,0.2,2.4,0.6,3.6c0.3,1,0.9,2,1.6,2.8c0.6,0.8,1.4,1.4,2.3,1.9c1.8,0.9,3.9,0.9,5.8,0
				c0.9-0.4,1.7-1.1,2.3-1.8c0.7-0.8,1.2-1.8,1.5-2.8c0.4-1.2,0.6-2.4,0.6-3.6c0-1.2-0.2-2.4-0.6-3.6c-0.3-1-0.9-2-1.5-2.8
				c-0.6-0.8-1.4-1.4-2.3-1.8c-0.9-0.4-1.9-0.7-2.9-0.7c-1,0-2,0.2-2.9,0.7c-0.9,0.5-1.7,1.1-2.3,1.9c-0.7,0.8-1.2,1.8-1.6,2.8
				C295.8,43.9,295.6,45.1,295.6,46.3L295.6,46.3z"/>
			<path id="Path_00000181794089943790924880000013992581835286341538_" class="st0" d="M320.6,46.2c0-2,0.3-4,1-5.9
				c1.3-3.7,4-6.6,7.6-8.2c1.9-0.9,4-1.3,6.1-1.2c2.8-0.1,5.5,0.7,7.8,2.1c2.1,1.3,3.8,3.3,4.8,5.5l-7,2.3c-1.7-3.1-5.5-4.3-8.6-2.8
				c-0.9,0.4-1.7,1.1-2.3,1.8c-0.7,0.8-1.2,1.8-1.6,2.8c-0.4,1.2-0.6,2.4-0.6,3.6c0,1.2,0.2,2.5,0.6,3.6c0.4,1,0.9,2,1.6,2.8
				c0.6,0.8,1.4,1.4,2.3,1.8c0.9,0.4,1.8,0.7,2.8,0.7c1.3,0,2.5-0.3,3.6-1c1-0.6,1.8-1.5,2.3-2.5l7,2.3c-1,2.3-2.6,4.2-4.8,5.6
				c-2.4,1.5-5.2,2.2-8,2.2c-2.1,0-4.2-0.4-6.1-1.2c-1.8-0.8-3.3-1.9-4.7-3.4c-1.3-1.4-2.3-3.1-3-4.9
				C321,50.2,320.6,48.2,320.6,46.2z"/>
			<path id="Shape_00000032618474889965337920000003087188039455613627_" class="st0" d="M352.6,27.2v-7.5h7.1v7.5H352.6z
				 M352.6,61.1V31.3h7.1v29.8H352.6z"/>
			<path id="Shape_00000183227788257689061370000014734310683562255504_" class="st0" d="M377.7,61.7c-1.8,0-3.7-0.4-5.3-1.2
				c-1.6-0.8-3-1.9-4.2-3.3c-1.2-1.5-2.1-3.1-2.8-4.9c-0.7-1.9-1-4-1-6c0-2.1,0.3-4.1,1-6c0.6-1.8,1.5-3.4,2.6-4.9
				c1.1-1.4,2.4-2.5,4-3.3c1.5-0.8,3.2-1.2,5-1.2c2,0,3.9,0.5,5.6,1.6c1.6,1,3,2.5,3.8,4.2v-4.9h7.2V61h-7.1v-4.8
				c-0.8,1.6-2.1,3-3.5,4C381.4,61.2,379.6,61.7,377.7,61.7L377.7,61.7z M386.5,43.1c-0.6-1.6-1.6-3.1-2.9-4.2
				c-1.2-1-2.7-1.6-4.3-1.6c-1,0-2.1,0.3-3,0.8c-0.9,0.5-1.7,1.2-2.4,2c-0.7,0.9-1.2,1.9-1.5,2.9c-0.4,1.1-0.5,2.2-0.5,3.4
				c0,1.2,0.2,2.3,0.6,3.4c0.3,1,0.9,2,1.6,2.8c0.7,0.8,1.5,1.4,2.4,1.9c1,0.5,2,0.7,3.1,0.7c1.5,0,3-0.5,4.1-1.4
				c1.2-1,2.2-2.2,2.8-3.6L386.5,43.1z"/>
			<path id="Path_00000021120816947465207000000002192948352562710146_" class="st0" d="M398.3,46.2c0-2,0.3-4,1-5.9
				c0.6-1.8,1.6-3.5,2.9-4.9c1.3-1.4,2.9-2.5,4.7-3.3c1.9-0.9,4-1.3,6.1-1.2c2.8-0.1,5.5,0.7,7.8,2.1c2.1,1.3,3.8,3.3,4.8,5.5
				l-7,2.3c-1.7-3.1-5.5-4.3-8.6-2.8c-0.9,0.4-1.7,1.1-2.3,1.8c-0.7,0.8-1.2,1.8-1.6,2.8c-0.4,1.2-0.6,2.4-0.6,3.6
				c0,1.2,0.2,2.5,0.6,3.6c0.4,1,0.9,2,1.6,2.8c0.6,0.8,1.4,1.4,2.3,1.8c0.9,0.4,1.8,0.7,2.8,0.7c1.3,0,2.5-0.4,3.6-1
				c1-0.6,1.8-1.5,2.3-2.5l7,2.3c-1,2.3-2.6,4.2-4.8,5.6c-2.4,1.5-5.2,2.2-8,2.2c-2.1,0-4.2-0.4-6.1-1.2c-1.8-0.8-3.3-1.9-4.6-3.4
				c-1.3-1.4-2.3-3.1-3-4.9C398.7,50.2,398.3,48.2,398.3,46.2z"/>
			<path id="Shape_00000082360509082137510020000015386136868260016779_" class="st0" d="M429.2,27.2v-7.5h7.2v7.5H429.2z
				 M429.2,61.1V31.3h7.2v29.8H429.2z"/>
			<path id="Shape_00000167368383083443037210000008244864794475685530_" class="st0" d="M455.7,61.7c-2.1,0-4.2-0.4-6.1-1.2
				c-1.8-0.8-3.3-1.9-4.6-3.4c-1.3-1.4-2.3-3.1-2.9-4.9c-0.7-1.9-1-3.9-1-5.9c0-2,0.3-4,1-5.9c0.6-1.8,1.6-3.5,2.9-4.9
				c1.3-1.4,2.9-2.6,4.6-3.4c1.9-0.9,4-1.3,6.1-1.2c2.1,0,4.2,0.4,6.1,1.2c1.7,0.8,3.3,1.9,4.6,3.4c1.3,1.4,2.3,3.1,2.9,4.9
				c0.7,1.9,1,3.9,1,5.9c0,2-0.3,4-1,5.9c-0.6,1.8-1.6,3.5-2.9,4.9c-1.3,1.4-2.8,2.6-4.6,3.4C460,61.3,457.9,61.7,455.7,61.7
				L455.7,61.7z M448.5,46.3c0,1.2,0.2,2.4,0.6,3.6c0.3,1,0.9,2,1.5,2.8c0.6,0.8,1.4,1.4,2.3,1.8c1.8,0.9,3.9,0.9,5.8,0
				c0.9-0.4,1.7-1.1,2.3-1.8c0.7-0.8,1.2-1.8,1.6-2.8c0.4-1.2,0.6-2.4,0.6-3.6c0-1.2-0.2-2.4-0.6-3.6c-0.3-1-0.9-2-1.6-2.8
				c-0.6-0.8-1.4-1.4-2.3-1.8c-0.9-0.4-1.9-0.7-2.9-0.7c-1,0-2,0.2-2.9,0.7c-0.9,0.5-1.7,1.1-2.3,1.9c-0.7,0.8-1.2,1.8-1.5,2.8
				C448.6,43.8,448.4,45,448.5,46.3L448.5,46.3z M457.6,27.9l-4.6-1.5l2.9-6.8h6.7L457.6,27.9z"/>
			<path id="Path_00000136380601230150053730000009857979238468863899_" class="st0" d="M501.2,61.1h-7.2V44.4
				c0-2.4-0.4-4.1-1.2-5.2c-0.7-1.1-2-1.7-3.3-1.6c-0.8,0-1.5,0.2-2.2,0.5c-0.8,0.3-1.5,0.7-2.1,1.3c-0.7,0.6-1.3,1.2-1.8,2
				c-0.5,0.8-0.9,1.6-1.2,2.5v17.4h-7.2V31.3h6.5v5.5c1-1.9,2.6-3.4,4.5-4.4c2-1.1,4.3-1.6,6.6-1.6c1.5-0.1,3,0.3,4.3,1
				c1.1,0.6,2,1.6,2.6,2.7c0.6,1.2,1.1,2.4,1.3,3.7c0.2,1.4,0.3,2.8,0.3,4.3V61.1z"/>
		</g>
	</g>
</g>
</svg>
